<?xml version="1.0" standalone="yes"?>
<svg xmlns="http://www.w3.org/2000/svg" width="120" height="120">
<path style="fill:#010101; stroke:none;" d="M0 0L0 120L120 120L120 0L0 0z"/>
<path style="fill:#ff01ff; stroke:none;" d="M51.3333 9.66666L51.6667 10.3333L51.3333 9.66666z"/>
<path style="fill:#37e577; stroke:none;" d="M52 9L54 12L52 9z"/>
<path style="fill:#987844; stroke:none;" d="M53 9L54 12C29.1673 4.86542 11.5347 36.1388 9.12886 56.0895C5.7823 83.8408 25.7347 102.448 49.831 109.415C61.3747 112.753 88.1761 110.452 93 97C96.2646 97.0687 97.0687 96.2646 97 93C110.768 88.0629 112.092 61.4563 109.169 49.9105C101.943 21.365 82.0209 9 53 9z"/>
<path style="fill:#37e577; stroke:none;" d="M67.3333 9.66666L67.6667 10.3333L67.3333 9.66666z"/>
<path style="fill:#ff01ff; stroke:none;" d="M68.3333 9.66666L68.6667 10.3333L68.3333 9.66666M44.6667 11.3333L45.3333 11.6667L44.6667 11.3333z"/>
<path style="fill:#37e577; stroke:none;" d="M46 11L47 12L46 11M66 11L67 12L66 11M73 11L74 12L73 11z"/>
<path style="fill:#ff01ff; stroke:none;" d="M74.6667 11.3333L75.3333 11.6667L74.6667 11.3333z"/>
<path style="fill:#37e577; stroke:none;" d="M42 12L43 13L42 12M77 12L78 13L77 12z"/>
<path style="fill:#f3da90; stroke:none;" d="M54 15.4282C-3.00886 23.6833 8.1082 112.122 65 104.711C72.0317 103.795 79.0422 101.309 85 97.4522C124.028 72.1844 99.7535 8.80294 54 15.4282M26 22L27 23L26 22M93 22L94 23L93 22z"/>
<path style="fill:#37e577; stroke:none;" d="M24 24L25 25L24 24z"/>
<path style="fill:#f3da90; stroke:none;" d="M95 24L96 25L95 24M22 26L23 27L22 26z"/>
<path style="fill:#987844; stroke:none;" d="M58 33C56.7271 41.0044 45.9819 40.733 46.0988 50C46.2419 61.3543 59.4824 59.7726 64.338 67.2091C68.5772 73.7018 57.4877 73.9718 54.0015 73.0764C51.6439 72.4708 49.3521 71.6288 47 71C47.0924 78.8047 50.7805 80.0669 58 81L58 87L62 87C62.6648 78.2843 74.0218 78.5599 73.9012 69C73.7581 57.6457 60.5176 59.2274 55.662 51.7909C51.7905 45.8615 61.4202 44.8166 64.9954 45.7863C67.0445 46.342 69.0222 47.2383 71 48L62 33L58 33z"/>
<path style="fill:#37e577; stroke:none;" d="M107 42L108 43L107 42z"/>
<path style="fill:#ff01ff; stroke:none;" d="M11.3333 44.6667L11.6667 45.3333L11.3333 44.6667M108.333 44.6667L108.667 45.3333L108.333 44.6667z"/>
<path style="fill:#37e577; stroke:none;" d="M11 46L12 47L11 46M108 46L109 47L108 46z"/>
<path style="fill:#ff01ff; stroke:none;" d="M9.66667 51.3333L10.3333 51.6667L9.66667 51.3333M109.667 51.3333L110.333 51.6667L109.667 51.3333z"/>
<path style="fill:#37e577; stroke:none;" d="M9.66667 52.3333L10.3333 52.6667L9.66667 52.3333M109.667 52.3333L110.333 52.6667L109.667 52.3333M11 53L12 54L11 53M9.66667 67.3333L10.3333 67.6667L9.66667 67.3333M109.667 67.3333L110.333 67.6667L109.667 67.3333z"/>
<path style="fill:#ff01ff; stroke:none;" d="M9.66667 68.3333L10.3333 68.6667L9.66667 68.3333M109.667 68.3333L110.333 68.6667L109.667 68.3333z"/>
<path style="fill:#37e577; stroke:none;" d="M11 73L12 74L11 73z"/>
<path style="fill:#ff01ff; stroke:none;" d="M11.3333 74.6667L11.6667 75.3333L11.3333 74.6667z"/>
<path style="fill:#37e577; stroke:none;" d="M107 77L108 78L107 77z"/>
<path style="fill:#f3da90; stroke:none;" d="M22 93L23 94L22 93z"/>
<path style="fill:#ff01ff; stroke:none;" d="M97.6667 93.3333L98.3333 93.6667L97.6667 93.3333z"/>
<path style="fill:#010101; stroke:none;" d="M24 95L25 96L24 95M95 95L96 96L95 95z"/>
<path style="fill:#f3da90; stroke:none;" d="M26 97L27 98L26 97z"/>
<path style="fill:#37e577; stroke:none;" d="M93 97L94 98L93 97z"/>
<path style="fill:#ff01ff; stroke:none;" d="M93 98L94 99L93 98z"/>
<path style="fill:#37e577; stroke:none;" d="M42 107L43 108L42 107z"/>
</svg>
